<svg width="139" height="70" viewBox="0 0 139 70" fill="none" xmlns="http://www.w3.org/2000/svg">
<g clip-path="url(#clip0_1267_4962)">
<path fill-rule="evenodd" clip-rule="evenodd" d="M10.299 52.9751C10.299 52.9751 10.3052 39.6317 10.3175 12.9449L20.1368 53.119H28.1372L37.8198 12.9449V53.119H51.7218V0.728791H34.2142L26.339 32.6621L18.4116 0.728791C7.01319 0.728791 1.314 0.728791 1.314 0.728791C1.314 0.728791 1.314 1.99739 1.314 4.53459H4.74982V6.1415H1.18327V8.38553H3.16815V9.34625H1.18327V11.7462H4.77247V13.3524H1.18327V15.6359H3.19088V16.5847H1.18327V19.0515H4.77247V20.6368H1.15047V23.141H3.19088L3.16815 24.0528H1.15047V26.3075H4.74982V27.9186H1.15047C1.17234 28.061 1.18327 28.1322 1.18327 28.1322C1.18327 28.1322 1.17234 28.8149 1.15047 30.1804H3.16815L3.19088 31.065L1.15047 31.1488V33.5339H4.74982L4.77247 35.1333H1.15047V37.6183H3.19088V38.5672H1.15047V40.7956H4.77247V42.4211H1.15047V44.6688H3.19088L3.16815 45.5674H1.15047V48.0746H4.77247V49.6522H1.15047L1.13867 53.0609C7.24555 53.0037 10.299 52.9751 10.299 52.9751ZM123.313 0.699904C129.056 1.16809 133.097 3.01351 135.437 6.23615C137.777 9.45879 138.666 13.5103 138.103 18.3906C137.315 23.868 134.814 27.6578 130.601 29.7601C126.388 31.8625 120.886 32.6634 114.096 32.1631V52.9678H99.0172V0.699904H123.313ZM114.099 9.10752V23.7778C117.218 24.0883 119.458 23.7049 120.819 22.6277C122.181 21.5505 122.98 19.4792 123.218 16.4136C123.298 13.8169 122.718 11.8162 121.479 10.4115C119.62 8.30452 114.099 9.10752 114.099 9.10752ZM60.9002 50.7638L64.5709 42.5635C64.5709 42.5635 71.6195 46.4743 76.118 44.6738C79.1169 43.4734 79.5383 41.0984 77.3822 37.5486C69.4974 31.6862 64.841 27.6965 63.4131 25.5794C62.036 23.1812 58.5747 18.9942 60.3054 12.0228C61.4592 7.37517 64.249 4.03523 68.6748 2.00295C74.2553 -0.667649 81.1309 -0.667649 89.3015 2.00295L86.2495 10.4623C82.7688 8.97559 79.2709 8.60392 75.7558 9.34726C72.271 11.1501 72.1579 13.6557 75.4167 16.864C78.9704 19.7005 80.7592 21.1227 80.7833 21.1307C85.3983 24.2412 88.6232 27.5234 90.458 30.9774C92.2928 34.4315 92.4828 38.5964 91.0282 43.4723C89.41 47.6278 86.6294 50.6091 82.6866 52.4161C78.7438 54.2231 73.6967 54.5673 67.5454 53.4486C63.1153 51.6587 60.9002 50.7638 60.9002 50.7638Z" fill="#CC3333"/>
</g>
<path d="M4.18048 67.2645V58.413H0.667969V57.3626H9.09799V58.413H5.58548V67.2645H4.18048ZM9.22469 67.2645V57.3626H14.7577V58.413H10.6297V61.5909H14.0887V62.628H10.6297V66.2141H15.0454V67.2645H9.22469ZM16.3636 67.2645V57.3626H18.3105L21.0536 65.0232L23.877 57.3626H25.6166V67.2645H24.3052V59.2091L21.5755 66.6021H20.2173L17.5679 59.1891V67.2645H16.3636ZM27.6406 67.2645V57.3626H30.3369C31.5323 57.3626 32.3909 57.5644 32.9128 57.968C33.4346 58.3717 33.6955 59.0352 33.6955 59.9585C33.6955 61.0111 33.3387 61.8363 32.6251 62.4339C31.9114 63.0316 30.9212 63.3305 29.6545 63.3305H29.0323V67.2645H27.6406ZM29.0323 62.2667H29.601C30.435 62.2667 31.0796 62.0749 31.5345 61.6913C31.9895 61.3077 32.2169 60.7658 32.2169 60.0655C32.2169 59.4723 32.0385 59.0486 31.6817 58.7943C31.3249 58.5401 30.7294 58.413 29.8953 58.413H29.0323V62.2667ZM41.3895 56.7002V69.2448H40.3993V56.7002H41.3895ZM51.3868 67.2645V57.3626H53.956C54.9461 57.3626 55.7055 57.5499 56.2341 57.9246C56.7626 58.2992 57.0269 58.8389 57.0269 59.5436C57.0269 60.7435 56.3489 61.5976 54.993 62.1061C56.6121 62.6012 57.4216 63.4955 57.4216 64.789C57.4216 65.5918 57.154 66.2051 56.6188 66.6289C56.0835 67.0526 55.3119 67.2645 54.3039 67.2645H51.3868ZM52.7784 66.2141H53.0661C54.0965 66.2141 54.7633 66.1494 55.0666 66.02C55.6464 65.7747 55.9363 65.3198 55.9363 64.6552C55.9363 64.0664 55.6732 63.5769 55.1469 63.1866C54.6205 62.7963 53.9626 62.6012 53.1732 62.6012H52.7784V66.2141ZM52.7784 61.7114H53.2267C53.976 61.7114 54.557 61.5508 54.9696 61.2296C55.3822 60.9085 55.5884 60.4558 55.5884 59.8715C55.5884 58.8991 54.8346 58.413 53.3271 58.413H52.7784V61.7114ZM59.896 67.2645V57.3626H62.8933C63.8434 57.3626 64.5715 57.5722 65.0777 57.9915C65.584 58.4107 65.8371 59.0196 65.8371 59.818C65.8371 61.1382 65.1703 62.0749 63.8367 62.628L67.1418 67.2645H65.4156L62.5989 63.0762H61.2876V67.2645H59.896ZM61.2876 62.0258H61.7425C63.5088 62.0258 64.392 61.3322 64.392 59.9451C64.392 58.9237 63.6516 58.413 62.1707 58.413H61.2876V62.0258ZM68.3847 67.2645V57.3626H69.7897V67.2645H68.3847ZM71.6738 67.2645L74.9589 62.2934L71.8344 57.3626H73.4937L75.8755 61.0958L78.3777 57.3626H79.7024L76.5378 62.1462L79.7827 67.2645H78.1235L75.6079 63.3371L73.0053 67.2645H71.6738ZM86.4154 56.7002V69.2448H85.4252V56.7002H86.4154ZM96.4127 67.2645V57.3626H99.41C100.36 57.3626 101.088 57.5722 101.594 57.9915C102.101 58.4107 102.354 59.0196 102.354 59.818C102.354 61.1382 101.687 62.0749 100.353 62.628L103.659 67.2645H101.932L99.1157 63.0762H97.8043V67.2645H96.4127ZM97.8043 62.0258H98.2593C100.026 62.0258 100.909 61.3322 100.909 59.9451C100.909 58.9237 100.168 58.413 98.6875 58.413H97.8043V62.0258ZM104.908 67.2645V57.3626H110.441V58.413H106.313V61.5909H109.772V62.628H106.313V66.2141H110.729V67.2645H104.908ZM112.047 67.2645V57.3626H115.339C116.32 57.3626 117.113 57.4718 117.717 57.6904C118.322 57.9089 118.845 58.2791 119.286 58.801C119.986 59.6306 120.337 60.7234 120.337 62.0793C120.337 63.7252 119.902 65.0009 119.032 65.9063C118.162 66.8117 116.938 67.2645 115.359 67.2645H112.047ZM113.452 66.2141H115.252C116.536 66.2141 117.446 65.8684 117.982 65.177C118.557 64.4411 118.845 63.4531 118.845 62.2131C118.845 61.049 118.561 60.1346 117.995 59.4701C117.651 59.0642 117.241 58.7865 116.764 58.6371C116.287 58.4877 115.569 58.413 114.61 58.413H113.452V66.2141ZM125.317 57.115C126.717 57.115 127.839 57.5856 128.682 58.5267C129.525 59.4678 129.946 60.7234 129.946 62.2934C129.946 63.8947 129.525 65.1648 128.682 66.1037C127.839 67.0426 126.697 67.512 125.256 67.512C123.883 67.512 122.777 67.0359 121.941 66.0836C121.105 65.1313 120.687 63.8724 120.687 62.3068C120.687 60.7323 121.107 59.4734 121.948 58.53C122.789 57.5867 123.912 57.115 125.317 57.115ZM131.153 57.3626L133.535 61.0958L136.037 57.3626H137.362L134.197 62.1462L137.442 67.2645H135.783L133.267 63.3371L130.665 67.2645H129.333L132.618 62.2934L129.494 57.3626H131.153ZM125.317 58.1654C124.331 58.1654 123.561 58.53 123.008 59.2593C122.455 59.9886 122.179 61.0022 122.179 62.3001C122.179 63.5936 122.453 64.6106 123.002 65.351C123.55 66.0914 124.308 66.4616 125.276 66.4616C126.289 66.4616 127.072 66.097 127.625 65.3677C128.178 64.6385 128.454 63.6092 128.454 62.2801C128.454 60.991 128.177 59.983 127.621 59.256C127.066 58.5289 126.298 58.1654 125.317 58.1654Z" fill="#969DA0"/>
<defs>
<clipPath id="clip0_1267_4962">
<rect width="137.128" height="54.0902" fill="white" transform="translate(1.13867)"/>
</clipPath>
</defs>
</svg>
