<svg width="5" height="18" viewBox="0 0 5 18" fill="none" xmlns="http://www.w3.org/2000/svg">
<path fill-rule="evenodd" clip-rule="evenodd" d="M2.2207 0.666748C1.1207 0.666748 0.220703 1.56675 0.220703 2.66675C0.220703 3.76675 1.1207 4.66675 2.2207 4.66675C3.3207 4.66675 4.2207 3.76675 4.2207 2.66675C4.2207 1.56675 3.3207 0.666748 2.2207 0.666748ZM2.2207 14.0001C1.1207 14.0001 0.220703 14.9001 0.220703 16.0001C0.220703 17.1001 1.1207 18.0001 2.2207 18.0001C3.3207 18.0001 4.2207 17.1001 4.2207 16.0001C4.2207 14.9001 3.3207 14.0001 2.2207 14.0001ZM0.220703 9.33342C0.220703 8.23342 1.1207 7.33342 2.2207 7.33342C3.3207 7.33342 4.2207 8.23342 4.2207 9.33342C4.2207 10.4334 3.3207 11.3334 2.2207 11.3334C1.1207 11.3334 0.220703 10.4334 0.220703 9.33342Z" fill="white"/>
</svg>
