<svg xmlns="http://www.w3.org/2000/svg" width="214" height="37" viewBox="0 0 214 37" fill="none">
<g clip-path="url(#clip0_2840_38186)">
<path d="M193.597 2.24297L186.524 21.0005H185.467L181.292 5.5424L175.477 21.0005H174.42L169.37 2.24297L166.982 0.347168H174.821L172.451 2.24297L176.097 15.787L180.745 3.48254L180.399 2.24297L178.029 0.347168H185.868L183.48 2.24297L187.144 15.787L192.248 2.24297L189.86 0.347168H195.985L193.597 2.24297Z" fill="white"/>
<path d="M213.32 0.347168H207.833L209.966 2.02423V15.1308L201.052 0.347168H196.769L199.12 3.02681V19.3234L197.006 21.0005H202.492L200.378 19.3234V4.9773L210.221 21.3468H211.206V2.02423L213.32 0.347168Z" fill="white"/>
<path d="M158.579 0.110352C153.657 0.110352 149.957 4.68583 149.957 10.7925C149.957 16.8992 153.493 21.2376 158.579 21.2376C163.665 21.2376 166.964 16.8263 166.964 10.7378C166.964 4.64938 163.428 0.110352 158.579 0.110352V0.110352ZM158.579 19.9981C155.425 19.9981 152.983 16.5164 152.983 10.7743C152.983 5.03216 155.535 1.27699 158.579 1.3499C161.623 1.42282 164.047 4.99573 164.047 10.7378C164.047 16.4799 161.605 20.071 158.579 19.9981" fill="white"/>
<path d="M147.587 19.8156C146.648 18.8076 146.043 17.5344 145.855 16.1698C145.855 15.9511 145.746 15.7324 145.709 15.4954C145.308 13.6725 144.816 11.3756 142.501 10.8105L141.48 10.61H141.808C143.162 10.61 144.46 10.0723 145.417 9.1151C146.375 8.15789 146.912 6.85961 146.912 5.50592C146.912 4.15223 146.375 2.85401 145.417 1.8968C144.46 0.939602 143.162 0.401855 141.808 0.401855H131.399L133.787 2.22474V19.1047L131.399 20.9276H139.147L136.777 19.1047V10.8105H140.514C141.14 11.1458 141.692 11.6047 142.136 12.1595C142.448 13.0358 142.644 13.9488 142.72 14.8756L142.92 16.3339C143.103 17.8758 143.613 19.361 144.415 20.6906L144.634 20.9823H148.99L147.587 19.8156ZM140.204 9.57099H136.777V1.58672H140.204C140.711 1.56819 141.216 1.65557 141.687 1.84329C142.158 2.031 142.585 2.31493 142.94 2.67691C143.295 3.03889 143.571 3.47098 143.749 3.94555C143.928 4.42012 144.006 4.92675 143.977 5.43305C144.009 5.95434 143.936 6.47673 143.763 6.96927C143.589 7.46182 143.318 7.91448 142.966 8.30039C142.614 8.6863 142.188 8.99758 141.714 9.21584C141.24 9.43411 140.726 9.55488 140.204 9.57099Z" fill="white"/>
<path d="M125.493 10.0631C126.557 9.58021 127.421 8.7463 127.942 7.7013C128.463 6.65631 128.608 5.46388 128.354 4.32433C128.099 3.18478 127.461 2.16747 126.545 1.44324C125.629 0.719014 124.492 0.331968 123.324 0.347108H112.916L115.304 2.17V19.05L112.916 20.8729H123.853C125.205 20.8963 126.52 20.4275 127.553 19.5538C128.585 18.68 129.265 17.4608 129.466 16.1231C129.667 14.7854 129.374 13.4204 128.644 12.2821C127.913 11.1438 126.793 10.3099 125.493 9.93552V10.0631ZM118.202 1.45904H121.629C122.137 1.4379 122.644 1.52338 123.117 1.70994C123.591 1.89649 124.02 2.18001 124.377 2.54227C124.734 2.90454 125.011 3.3375 125.191 3.81337C125.371 4.28924 125.449 4.79748 125.421 5.30537C125.452 5.82666 125.379 6.34906 125.206 6.8416C125.032 7.33414 124.761 7.7868 124.409 8.17271C124.057 8.55863 123.632 8.86996 123.157 9.08822C122.683 9.30648 122.169 9.4272 121.647 9.44331H118.202V1.45904ZM122.158 19.6879H118.202V10.7558H122.158C122.742 10.7672 123.319 10.8963 123.853 11.1353C124.387 11.3743 124.867 11.7185 125.265 12.1472C125.664 12.5759 125.971 13.0804 126.17 13.6305C126.369 14.1807 126.455 14.7653 126.423 15.3495C126.451 15.9205 126.36 16.491 126.157 17.0252C125.953 17.5594 125.642 18.0456 125.241 18.4532C124.84 18.8608 124.359 19.181 123.828 19.3935C123.298 19.606 122.729 19.7062 122.158 19.6879" fill="white"/>
<path d="M50.7729 5.19638L53.5802 1.71466H56.9525V19.2326L54.5463 21.1284H62.2936L59.9239 19.2326V1.71466H63.278L66.1035 5.19638V0.475098H50.7729V5.19638Z" fill="white"/>
<path d="M41.4217 2.3709V19.2326L39.0337 21.1284H52.3043H52.359V16.3889L49.5518 19.8706H49.4971H44.393V2.3709L46.781 0.475098H39.0337L41.4217 2.3709Z" fill="white"/>
<path d="M2.79473 2.17037V19.4514L0.680176 21.1284H6.14884L4.03429 19.4514V4.46723L9.12016 21.1284H9.79462L15.4456 2.66253V19.2326L13.0576 21.0555H20.8049L18.4169 19.2326V2.35267L20.8049 0.529785H14.7894L10.378 15.1129C9.12017 10.9567 5.94835 0.529785 5.94835 0.529785H0.680176L2.79473 2.17037Z" fill="white"/>
<path d="M101.085 0.475098H95.5979L97.7124 2.15216V15.2587L88.8167 0.475098H84.5146L86.8662 3.15475V19.4514L84.7516 21.1284H90.2385L88.124 19.4514V5.10524L97.9859 21.4748H98.9702V2.15216L101.085 0.475098Z" fill="white"/>
<path d="M29.883 0.219727C24.9612 0.219727 21.2607 4.81344 21.2607 10.9019C21.2607 16.9903 24.7972 21.347 29.883 21.347C34.9689 21.347 38.2683 16.9357 38.2683 10.8472C38.2683 4.75875 34.7319 0.219727 29.883 0.219727V0.219727ZM29.883 20.1075C26.7294 20.1986 24.2867 16.6257 24.2867 10.993C24.2867 5.36028 26.8388 1.49579 29.883 1.5687C32.9272 1.64162 35.3517 5.21445 35.3517 10.9383C35.3517 16.6622 32.909 20.2715 29.883 20.1986" fill="white"/>
<path d="M75.9473 0.219727C71.0437 0.219727 67.3433 4.81344 67.3433 10.9019C67.3433 16.9903 70.8797 21.347 75.9473 21.347C81.0149 21.347 84.3508 16.9357 84.3508 10.8472C84.3508 4.75875 80.8144 0.219727 75.9473 0.219727V0.219727ZM75.9473 20.1075C72.7937 20.1986 70.351 16.6257 70.351 10.993C70.351 5.36028 72.8848 1.49579 75.9473 1.5687C79.0098 1.64162 81.416 5.21445 81.416 10.9383C81.416 16.6622 78.9915 20.2715 75.9473 20.1986" fill="white"/>
<path d="M80.6505 35.1098H77.8979V29.8599H76.6401V36.2582H80.6505V35.1098Z" fill="white"/>
<path d="M103.801 29.8599H102.598V34.1983L98.7699 29.8599H97.8037V36.2582H99.0068V31.938L102.78 36.2582H103.801V29.8599Z" fill="white"/>
<path d="M137.342 29.8599H136.139V34.1983L132.311 29.8599H131.345V36.2582H132.548V31.938L136.321 36.2582H137.342V29.8599Z" fill="white"/>
<path d="M114.428 30.8805C114.095 30.5284 113.69 30.253 113.24 30.0735C112.789 29.8941 112.305 29.8149 111.822 29.8414H109.27V36.2398H111.84C112.3 36.2546 112.758 36.1767 113.187 36.0107C113.616 35.8447 114.007 35.5941 114.337 35.2737C114.908 34.6904 115.236 33.9114 115.253 33.0951C115.27 32.2789 114.975 31.4869 114.428 30.8805V30.8805ZM111.73 35.2737H110.345V30.8076H111.676C111.986 30.7795 112.299 30.8164 112.594 30.9159C112.889 31.0153 113.16 31.1752 113.39 31.3853C113.62 31.5954 113.804 31.8511 113.929 32.1361C114.055 32.4211 114.12 32.7291 114.12 33.0406C114.12 33.3521 114.055 33.6602 113.929 33.9452C113.804 34.2302 113.62 34.4858 113.39 34.6959C113.16 34.906 112.889 35.0659 112.594 35.1653C112.299 35.2648 111.986 35.3017 111.676 35.2737" fill="white"/>
<path d="M91.5331 30.7349C91.2014 30.4114 90.8073 30.1588 90.3748 29.9927C89.9423 29.8266 89.4804 29.7504 89.0175 29.7688C88.0902 29.7491 87.1927 30.0963 86.5201 30.7349C85.9134 31.3491 85.5732 32.1776 85.5732 33.0408C85.5732 33.9041 85.9134 34.7327 86.5201 35.3468C87.1991 35.9985 88.1037 36.3625 89.0448 36.3625C89.9859 36.3625 90.8906 35.9985 91.5695 35.3468C91.8738 35.0467 92.1153 34.689 92.2802 34.2947C92.4451 33.9005 92.53 33.4773 92.53 33.05C92.53 32.6226 92.4451 32.1995 92.2802 31.8052C92.1153 31.4109 91.8738 31.0533 91.5695 30.7531L91.5331 30.7349ZM89.054 35.365C88.6031 35.3507 88.1664 35.2039 87.7984 34.943C87.4304 34.6821 87.1473 34.3186 86.9846 33.8978C86.8219 33.4771 86.7867 33.0177 86.8834 32.5771C86.9801 32.1364 87.2044 31.734 87.5283 31.4201C87.8522 31.1061 88.2615 30.8945 88.7049 30.8116C89.1484 30.7287 89.6064 30.7783 90.0219 30.9541C90.4373 31.1298 90.7918 31.424 91.0411 31.8C91.2904 32.176 91.4235 32.6171 91.4237 33.0682C91.429 33.3775 91.3708 33.6847 91.2527 33.9706C91.1345 34.2565 90.959 34.5151 90.7368 34.7304C90.5147 34.9458 90.2507 35.1132 89.9612 35.2223C89.6718 35.3315 89.363 35.38 89.054 35.365" fill="white"/>
<path d="M125.712 30.7348C125.378 30.4099 124.98 30.1566 124.545 29.9905C124.109 29.8243 123.644 29.7489 123.178 29.7687C122.251 29.749 121.353 30.0962 120.681 30.7348C120.074 31.349 119.734 32.1775 119.734 33.0408C119.734 33.9041 120.074 34.7326 120.681 35.3468C121.362 35.9849 122.263 36.3372 123.196 36.3311C123.665 36.344 124.131 36.2618 124.566 36.0895C125.002 35.9171 125.398 35.6583 125.73 35.3285C126.034 35.0284 126.276 34.6707 126.441 34.2764C126.606 33.8821 126.691 33.459 126.691 33.0316C126.691 32.6043 126.606 32.1812 126.441 31.7869C126.276 31.3926 126.034 31.035 125.73 30.7348H125.712ZM123.215 35.3468C122.764 35.3324 122.327 35.1856 121.959 34.9247C121.591 34.6638 121.308 34.3003 121.145 33.8795C120.983 33.4588 120.947 32.9994 121.044 32.5588C121.141 32.1182 121.365 31.7157 121.689 31.4017C122.013 31.0878 122.422 30.8762 122.866 30.7933C123.309 30.7104 123.767 30.7599 124.183 30.9357C124.598 31.1115 124.952 31.4058 125.202 31.7818C125.451 32.1577 125.584 32.5988 125.584 33.0499C125.587 33.3585 125.527 33.6644 125.408 33.9491C125.289 34.2338 125.113 34.4913 124.892 34.7061C124.67 34.9209 124.407 35.0884 124.119 35.1986C123.831 35.3087 123.523 35.3591 123.215 35.3468" fill="white"/>
</g>
<defs>
<clipPath id="clip0_2840_38186">
<rect width="212.64" height="36.2208" fill="white" transform="translate(0.680176 0.110352)"/>
</clipPath>
</defs>
</svg>