<?xml version="1.0" standalone="no"?>
<!DOCTYPE svg PUBLIC "-//W3C//DTD SVG 1.1//EN" "http://www.w3.org/Graphics/SVG/1.1/DTD/svg11.dtd" >
<svg xmlns="http://www.w3.org/2000/svg">
<metadata>Generated by IcoMoon</metadata>
<defs>
<font id="icomoon" horiz-adv-x="1024">
<font-face units-per-em="1024" ascent="960" descent="-64" />
<missing-glyph horiz-adv-x="1024" />
<glyph unicode="&#x20;" horiz-adv-x="512" d="" />
<glyph unicode="&#xe900;" glyph-name="active" horiz-adv-x="882" d="M93.875 678.404c0 155.582 126.015 281.596 281.598 281.596s281.6-126.014 281.6-281.596c0-155.583-126.017-281.595-281.6-281.595s-281.598 126.012-281.598 281.595zM469.33 239.946v98.136c-112.455 29.036-232.017 4.395-323.828-66.739s-145.532-180.753-145.503-296.895l93.866-0.048c-0.017 91.426 44.351 177.169 118.996 229.962 74.643 52.79 170.271 66.059 256.469 35.584zM375.461 490.664c103.723 0 187.73 84.011 187.73 187.731s-84.008 187.731-187.73 187.731c-103.723 0-187.733-84.010-187.733-187.731s84.010-187.731 187.733-187.731zM813.258 238.217l-165.956-165.905-99.499 99.544-66.409-66.364 165.953-165.953 232.32 232.317-66.409 66.361z" />
<glyph unicode="&#xe901;" glyph-name="anytime" horiz-adv-x="1218" d="M916.098 957.038l256.213-109.718c13.467-5.705 22.179-18.945 22.179-33.574v-146.291c0-201.515-74.448-319.134-274.584-434.046-5.638-3.216-11.934-4.827-18.227-4.827-6.296 0-12.592 1.611-18.23 4.827-200.137 115.206-274.584 232.824-274.584 434.046v146.291c0 14.629 8.712 27.868 22.107 33.574l256.21 109.718c9.299 3.95 19.619 3.95 28.916 0zM538.829 667.454v73.146h-439.22c-40.335 0-73.203-32.842-73.203-73.146v-146.291h527.869c-10.176 44.693-15.446 92.821-15.446 146.291zM959.527 169.984c109.073 62.613 185.206 128.006 235.13 204.88h3v-365.726c0-40.376-32.796-73.147-73.202-73.147h-1024.846c-40.335 0-73.203 32.771-73.203 73.147v365.726h588.772c49.999-76.803 126.129-142.267 235.204-205.027 16.542-9.435 35.428-14.408 54.463-14.408 19.033 0 37.918 4.973 54.682 14.555zM209.412 155.449h146.405c20.206 0 36.604 16.384 36.604 36.573 0 20.187-16.398 36.573-36.604 36.573h-146.405c-20.204 0-36.602-16.387-36.602-36.573 0-20.189 16.398-36.573 36.602-36.573z" />
<glyph unicode="&#xe902;" glyph-name="calender" horiz-adv-x="922" d="M679.67 910.84c0 19.087-15.473 34.56-34.56 34.56s-34.56-15.473-34.56-34.56v-57.581h-299.517v57.581c0 19.087-15.473 34.56-34.56 34.56s-34.56-15.473-34.56-34.56v-57.581h-103.68c-69.985 0-126.72-56.734-126.72-126.72v-645.121c0-69.985 56.735-126.72 126.72-126.72h645.123c69.985 0 126.72 56.735 126.72 126.72v645.121c0 69.986-56.735 126.72-126.72 126.72h-103.685v57.581zM840.955 576.759h-760.323v149.78c0 31.812 25.788 57.6 57.6 57.6h103.68v-57.619c0-19.087 15.473-34.56 34.56-34.56s34.56 15.473 34.56 34.56v57.619h299.517v-57.619c0-19.087 15.473-34.56 34.56-34.56s34.56 15.473 34.56 34.56v57.619h103.685c31.811 0 57.6-25.788 57.6-57.6v-149.78zM80.632 507.639h760.323v-426.221c0-31.811-25.789-57.6-57.6-57.6h-645.123c-31.812 0-57.6 25.789-57.6 57.6v426.221z" />
<glyph unicode="&#xe903;" d="M910.221 960h-796.443c-62.838 0-113.778-50.94-113.778-113.778v-796.443c0-62.837 50.94-113.779 113.778-113.779h796.443c62.837 0 113.779 50.942 113.779 113.779v796.443c0 62.838-50.942 113.778-113.779 113.778z" />
<glyph unicode="&#xe904;" d="M275.931 509.575c-12.317-0.033-24.374-3.555-34.773-10.154-10.4-6.603-18.718-16.011-23.993-27.144-5.275-11.129-7.29-23.527-5.813-35.754 1.477-12.231 6.386-23.79 14.159-33.346l165.702-202.981c5.908-7.336 13.481-13.156 22.091-16.978 8.61-3.817 18.006-5.53 27.41-4.993 20.111 1.081 38.269 11.842 49.848 29.528l344.203 554.333c0.057 0.092 0.115 0.184 0.176 0.274 3.232 4.959 2.183 14.786-4.485 20.959-1.831 1.695-3.99 2.997-6.341 3.827-2.355 0.829-4.854 1.168-7.344 0.996s-4.915-0.853-7.135-2c-2.216-1.146-4.174-2.734-5.751-4.666-0.127-0.152-0.254-0.301-0.385-0.449l-347.136-392.203c-1.319-1.495-2.925-2.707-4.719-3.576s-3.744-1.368-5.734-1.479c-1.991-0.106-3.981 0.184-5.857 0.852-1.88 0.668-3.604 1.704-5.079 3.043l-115.207 104.837c-11.966 10.969-27.605 17.060-43.837 17.072z" />
<glyph unicode="&#xe905;" glyph-name="checkbox-active-blue" d="M711.113 704h-398.224c-31.419 0-56.889-25.47-56.889-56.889v-398.224c0-31.415 25.47-56.887 56.889-56.887h398.224c31.415 0 56.887 25.472 56.887 56.887v398.224c0 31.419-25.472 56.889-56.887 56.889z" />
<glyph unicode="&#xe906;" glyph-name="close-with-circle" d="M511.985 854.588c-224.552 0-406.588-182.036-406.588-406.588 0-224.551 182.036-406.588 406.588-406.588 224.554 0 406.588 182.037 406.588 406.588s-182.034 406.588-406.588 406.588zM15.044 448c0 274.453 222.488 496.941 496.941 496.941s496.941-222.488 496.941-496.941c0-274.453-222.488-496.941-496.941-496.941s-496.941 222.488-496.941 496.941zM679.466 615.472c17.643-17.643 17.643-46.246 0-63.889l-103.584-103.584 103.584-103.587c17.643-17.643 17.643-46.246 0-63.889s-46.246-17.643-63.889 0l-103.587 103.584-103.584-103.584c-17.643-17.643-46.246-17.643-63.889 0s-17.643 46.246 0 63.889l103.584 103.587-103.584 103.584c-17.643 17.643-17.643 46.246 0 63.889s46.246 17.643 63.889 0l103.584-103.584 103.587 103.584c17.643 17.643 46.246 17.643 63.889 0z" />
<glyph unicode="&#xe907;" glyph-name="copy" horiz-adv-x="922" d="M204.79 755.2v153.6c0 28.277 22.923 51.2 51.2 51.2h614.4c28.278 0 51.2-22.923 51.2-51.2v-716.8c0-28.278-22.922-51.2-51.2-51.2h-153.6v-153.554c0-28.303-23.035-51.246-51.548-51.246h-613.701c-28.471 0-51.541 22.764-51.541 51.246l0.133 716.709c0.005 28.301 23.042 51.245 51.549 51.245h153.107zM102.524 652.8l-0.114-614.4h511.98v614.4h-511.866zM307.19 755.2h409.6v-512h102.4v614.4h-512v-102.4z" />
<glyph unicode="&#xe908;" glyph-name="cut-eye" horiz-adv-x="1365" d="M175.095 718.959c18.87 20.128 39.4 40.426 61.554 60.248l59.096-61.613c-20.769-18.461-40.247-37.639-58.397-56.998-51.152-54.561-90.504-109.287-117.063-150.411-12.75-19.743-22.488-36.25-29.108-47.963 6.621-11.713 16.358-28.22 29.108-47.963 26.559-41.124 65.911-95.849 117.063-150.409 103.082-109.957 249.030-214.071 431.096-214.071 79.86 0 152.769 20.029 218.155 51.794l61.665-64.287c-81.033-43.588-174.599-72.841-279.82-72.841-216.157 0-383.098 123.44-493.35 241.036-55.514 59.221-97.94 118.271-126.492 162.481-14.302 22.146-25.193 40.675-32.568 53.785-3.689 6.558-6.502 11.768-8.428 15.406-0.963 1.819-1.704 3.246-2.221 4.253l-0.609 1.192-0.236 0.468-0.021 0.042c-0.008 0.016-0.016 0.031 38.147 19.112-38.162 19.081-38.155 19.096-38.147 19.113l0.079 0.156 0.178 0.354 0.609 1.191c0.518 1.007 1.259 2.434 2.221 4.254 1.925 3.638 4.739 8.848 8.428 15.406 7.374 13.11 18.265 31.64 32.568 53.785 28.552 44.209 70.978 103.262 126.492 162.478zM42.667 462.222l-38.162-19.081c-6.006 12.012-6.006 26.151 0 38.162l38.162-19.081zM455.109 462.2c0 26.424 4.804 51.726 13.586 75.080l71.747-74.803v-0.277c0-68.999 54.595-125.247 122.943-127.902l71.744-74.803c-20.978-6.895-43.397-10.629-66.688-10.629-117.821 0-213.333 95.513-213.333 213.334zM624.26 670.953l83.29-86.837c40.926-13.118 72.881-46.273 84.33-87.919l83.299-86.847c4.308 16.901 6.595 34.608 6.595 52.851 0 117.821-95.512 213.333-213.331 213.333-15.148 0-29.927-1.579-44.182-4.581zM1099.537 263.851c-13.687-14.602-28.126-29.095-43.308-43.261l59.064-61.583c16.473 15.394 31.976 30.986 46.503 46.476 55.514 59.221 97.935 118.271 126.491 162.481 14.302 22.146 25.19 40.675 32.563 53.785 3.693 6.558 6.506 11.768 8.431 15.406 0.963 1.819 1.707 3.246 2.219 4.253l0.614 1.192 0.177 0.353 0.055 0.115 0.020 0.042c0.007 0.016 0.014 0.031-38.147 19.112l38.161-19.081c6.007 12.012 6.007 26.151 0 38.162l-38.161-19.081c38.161 19.081 38.154 19.096 38.147 19.113l-0.020 0.042-0.055 0.115-0.177 0.354-0.614 1.191c-0.512 1.007-1.256 2.434-2.219 4.254-1.925 3.638-4.738 8.848-8.431 15.406-7.373 13.11-18.261 31.64-32.563 53.785-28.556 44.209-70.977 103.262-126.491 162.478-110.257 117.602-277.197 241.041-493.352 241.041-97.147 0-184.353-24.933-260.939-63.063l62.36-65.015c60.27 26.472 126.603 42.744 198.58 42.744 182.062 0 328.010-104.116 431.092-214.071 51.152-54.561 90.508-109.287 117.064-150.411 12.752-19.743 22.487-36.25 29.109-47.963-6.622-11.713-16.357-28.221-29.109-47.963-26.556-41.124-65.911-95.849-117.064-150.409zM372.23 852.892c-16.252 17.064-43.259 17.723-60.322 1.472s-17.723-43.259-1.472-60.322l682.666-716.798c16.254-17.067 43.261-17.722 60.32-1.475 17.067 16.254 17.722 43.261 1.475 60.32l-682.667 716.802z" />
<glyph unicode="&#xe909;" glyph-name="dashboard" d="M0 391.111h455.111v568.889h-455.111v-568.889zM0-64h455.111v341.333h-455.111v-341.333zM568.889-64h455.111v568.889h-455.111v-568.889zM568.889 960v-341.333h455.111v341.333h-455.111z" />
<glyph unicode="&#xe90a;" glyph-name="delete" d="M392.53 820.898c-7.921-7.921-12.37-18.665-12.37-29.868v-42.243h253.437v42.243c0 11.203-4.449 21.947-12.372 29.868-7.921 7.922-18.665 12.372-29.868 12.372h-168.96c-11.203 0-21.944-4.45-29.868-12.372zM295.68 748.787v42.243c0 33.608 13.35 65.84 37.115 89.605s55.995 37.115 89.603 37.115h168.96c33.608 0 65.841-13.351 89.605-37.115s37.115-55.996 37.115-89.605v-42.243h168.965c23.327 0 42.24-18.911 42.24-42.24 0-23.33-18.913-42.24-42.24-42.24h-42.245v-549.117c0-33.608-13.35-65.841-37.115-89.605s-55.997-37.115-89.605-37.115h-422.397c-33.61 0-65.841 13.35-89.605 37.115s-37.115 55.997-37.115 89.605v549.117h-42.235c-23.329 0-42.24 18.911-42.24 42.24s18.911 42.24 42.24 42.24h168.956zM253.439 664.307v-549.117c0-11.203 4.45-21.947 12.371-29.868 7.923-7.923 18.668-12.372 29.87-12.372h422.397c11.203 0 21.947 4.449 29.868 12.372 7.923 7.921 12.372 18.665 12.372 29.868v549.117h-506.878zM422.4 537.587c23.327 0 42.24-18.911 42.24-42.24v-253.44c0-23.329-18.913-42.24-42.24-42.24-23.329 0-42.24 18.911-42.24 42.24v253.44c0 23.329 18.911 42.24 42.24 42.24zM633.59 495.347c0 23.329-18.911 42.24-42.24 42.24s-42.24-18.911-42.24-42.24v-253.44c0-23.329 18.911-42.24 42.24-42.24s42.24 18.911 42.24 42.24v253.44z" />
<glyph unicode="&#xe90b;" glyph-name="edit" d="M819.503 823.163c8.973 8.972 21.141 14.013 33.83 14.013s24.858-5.041 33.83-14.013c8.973-8.972 14.012-21.141 14.012-33.83s-5.039-24.858-14.012-33.83l-396.975-396.975-90.216-22.554 22.553 90.21 396.977 396.979zM853.333 922.51c-35.319 0-69.193-14.031-94.17-39.006l-405.334-405.334c-5.468-5.47-9.347-12.318-11.223-19.823l-42.667-170.667c-3.635-14.537 0.625-29.918 11.223-40.516s25.978-14.857 40.518-11.221l170.665 42.667c7.505 1.873 14.353 5.751 19.823 11.221l405.333 405.333c24.977 24.975 39.006 58.849 39.006 94.17s-14.029 69.194-39.006 94.17c-24.977 24.975-58.85 39.006-94.17 39.006zM170.667 832c-33.948 0-66.505-13.486-90.51-37.49s-37.49-56.562-37.49-90.51v-597.333c0-33.95 13.486-66.505 37.49-90.509s56.562-37.491 90.51-37.491h597.333c33.95 0 66.505 13.487 90.509 37.491s37.491 56.559 37.491 90.509v298.667c0 23.565-19.102 42.667-42.667 42.667s-42.667-19.102-42.667-42.667v-298.667c0-11.315-4.497-22.17-12.497-30.17s-18.854-12.497-30.17-12.497h-597.333c-11.316 0-22.168 4.497-30.17 12.497s-12.497 18.854-12.497 30.17v597.333c0 11.316 4.495 22.168 12.497 30.17s18.854 12.497 30.17 12.497h298.667c23.565 0 42.667 19.103 42.667 42.667s-19.102 42.667-42.667 42.667h-298.667z" />
<glyph unicode="&#xe90c;" glyph-name="email" horiz-adv-x="1152" d="M85.423 786.96c8.221 27.505 33.881 47.79 63.911 47.79h853.334c30.029 0 55.686-20.285 63.91-47.79l-490.578-343.405-490.578 343.405zM2.668 767.572v0zM2.668 767.572v-639.489c0-80.755 65.909-146.669 146.666-146.669h853.334c80.755 0 146.669 65.914 146.669 146.669v640zM82.668 691.236l470.395-329.277c13.773-9.641 32.104-9.641 45.876 0l470.398 329.277v-563.153c0-36.576-30.093-66.669-66.669-66.669h-853.334c-36.575 0-66.666 30.093-66.666 66.669v563.153zM2.669 768.717c0.344 80.469 66.119 146.033 146.665 146.033h853.334c80.544 0 146.323-65.563 146.662-146.032z" />
<glyph unicode="&#xe90d;" glyph-name="filter" horiz-adv-x="731" d="M671.452 575.846l-335.726 335.726-335.726-335.726h671.452zM671.452 320.211l-335.726-335.725-335.726 335.725h671.452z" />
<glyph unicode="&#xe90e;" glyph-name="inactive" horiz-adv-x="889" d="M104.226 674.061c0 154.768 125.352 280.123 280.116 280.123 154.761 0 280.115-125.355 280.115-280.123 0-154.767-125.354-280.121-280.115-280.121-154.764 0-280.116 125.354-280.116 280.121zM477.715 237.91v97.622c-111.864 28.882-230.797 4.371-322.123-66.39s-144.766-179.806-144.736-295.34l93.372-0.049c-0.018 90.947 44.118 176.244 118.369 228.759s169.375 65.714 255.119 35.398zM384.345 487.322c103.176 0 186.745 83.569 186.745 186.748s-83.569 186.747-186.745 186.747-186.743-83.57-186.743-186.747c0-103.179 83.567-186.748 186.743-186.748zM810.165 278.924l-99.021-99.069-99.021 99.069-66.061-66.061 99.067-99.023-99.067-99.023 66.061-66.061 99.021 99.069 99.021-99.069 66.059 66.061-99.067 99.023 99.067 99.023-66.059 66.061z" />
<glyph unicode="&#xe90f;" glyph-name="info" d="M512.020-30.72c-264.397 0-478.72 214.323-478.72 478.721s214.323 478.72 478.72 478.72c264.397 0 478.72-214.323 478.72-478.72s-214.323-478.721-478.72-478.721zM464.2 495.872v-287.232h95.743v287.232h-95.743zM464.2 591.617v95.744h95.743v-95.744h-95.743z" />
<glyph unicode="&#xe910;" glyph-name="lock" horiz-adv-x="979" d="M389.672 763.111c-29.724-29.724-46.423-70.038-46.423-112.075v-118.863h316.995v118.863c0 42.036-16.7 82.351-46.423 112.075s-70.037 46.423-112.075 46.423c-42.037 0-82.351-16.699-112.075-46.423zM302.706 452.924h-78.093c-21.884 0-39.624-17.737-39.624-39.624v-277.37c0-21.882 17.741-39.624 39.624-39.624h554.741c21.882 0 39.624 17.742 39.624 39.624v277.37c0 21.887-17.742 39.624-39.624 39.624h-78.568c-0.303-0.004-0.61-0.009-0.917-0.009s-0.614 0.004-0.922 0.009h-394.403c-0.305-0.004-0.612-0.009-0.919-0.009s-0.614 0.004-0.919 0.009zM264 532.174v118.863c0 63.054 25.048 123.526 69.634 168.112s105.058 69.634 168.112 69.634c63.052 0 123.526-25.048 168.11-69.634 44.589-44.586 69.636-105.058 69.636-168.112v-118.863h39.86c65.652 0 118.873-53.222 118.873-118.874v-277.37c0-65.652-53.221-118.873-118.873-118.873h-554.741c-65.652 0-118.873 53.221-118.873 118.873v277.37c0 65.652 53.221 118.874 118.873 118.874h39.388z" />
<glyph unicode="&#xe911;" glyph-name="open-eye" horiz-adv-x="1365" d="M134.511 414.259c26.559-41.124 65.911-95.849 117.063-150.409 103.082-109.957 249.030-214.071 431.092-214.071 182.067 0 328.015 104.113 431.097 214.071 51.152 54.559 90.508 109.285 117.064 150.409 12.752 19.743 22.487 36.25 29.109 47.963-6.622 11.713-16.357 28.22-29.109 47.963-26.556 41.124-65.911 95.849-117.064 150.411-103.083 109.954-249.030 214.071-431.097 214.071-182.062 0-328.010-104.116-431.092-214.071-51.152-54.561-90.504-109.287-117.063-150.411-12.751-19.743-22.488-36.25-29.109-47.963 6.621-11.713 16.358-28.22 29.109-47.963zM1346.594 481.335c0.007-0.016 0.014-0.031-38.147-19.113 38.161-19.081 38.154-19.096 38.147-19.112l-0.020-0.042-0.061-0.115-0.177-0.353-0.608-1.192c-0.519-1.007-1.256-2.434-2.219-4.253-1.925-3.638-4.738-8.849-8.431-15.406-7.373-13.11-18.261-31.64-32.563-53.785-28.556-44.209-70.984-103.259-126.498-162.481-110.251-117.596-277.19-241.036-493.35-241.036-216.154 0-383.095 123.44-493.346 241.036-55.515 59.221-97.941 118.271-126.493 162.481-14.302 22.146-25.193 40.675-32.568 53.785-3.689 6.558-6.502 11.768-8.428 15.406-0.963 1.819-1.704 3.246-2.221 4.253l-0.609 1.192-0.236 0.468-0.021 0.042c-0.008 0.016-0.016 0.031 38.147 19.112-38.162 19.081-38.155 19.096-38.147 19.113l0.021 0.042 0.058 0.115 0.178 0.354 0.609 1.191c0.518 1.007 1.259 2.434 2.221 4.254 1.925 3.638 4.739 8.848 8.428 15.406 7.374 13.11 18.265 31.64 32.568 53.785 28.552 44.209 70.978 103.262 126.493 162.478 110.251 117.602 277.192 241.041 493.346 241.041 216.16 0 383.099-123.439 493.35-241.041 55.514-59.216 97.942-118.269 126.498-162.478 14.302-22.146 25.19-40.675 32.563-53.785 3.693-6.558 6.506-11.768 8.431-15.406 0.963-1.819 1.7-3.247 2.219-4.254l0.608-1.191 0.177-0.354 0.061-0.115 0.020-0.042zM56.892 462.222l-38.162-19.081c-6.006 12.012-6.006 26.151 0 38.162l38.162-19.081zM1308.447 462.222l38.161 19.081c6.007-12.012 6.007-26.15 0-38.162l-38.161 19.081zM554.667 462.2c0 70.692 57.308 128 128 128 70.69 0 128-57.308 128-128s-57.31-128-128-128c-70.692 0-128 57.307-128 128zM682.667 675.533c-117.821 0-213.333-95.513-213.333-213.333s95.513-213.334 213.333-213.334c117.821 0 213.333 95.513 213.333 213.334s-95.512 213.333-213.333 213.333z" />
<glyph unicode="&#xe912;" glyph-name="search" d="M1024 7.328l-215.898 215.853c64.378 80.314 99.398 180.207 99.251 283.142 0 250.43-203.245 453.677-453.676 453.677s-453.677-203.247-453.677-453.677c0-250.431 203.247-453.676 453.677-453.676 102.934-0.147 202.828 34.874 283.142 99.251l215.853-215.898 71.328 71.328zM806.534 506.323c0.147-91.765-35.578-179.953-99.552-245.74l-7.565-7.565c-65.788-63.974-153.975-99.699-245.74-99.552-194.98 0-352.86 157.926-352.86 352.857 0 194.98 157.88 352.86 352.86 352.86 194.931 0 352.857-157.88 352.857-352.86z" />
<glyph unicode="&#xe913;" glyph-name="ssl" horiz-adv-x="1195" d="M1168.179 846.066l-263.327 110.939c-9.554 3.994-20.164 3.994-29.719 0l-263.327-110.939c-13.77-5.769-22.721-19.155-22.721-33.947v-147.918c0-203.463 76.516-322.389 282.212-438.875 5.794-3.254 12.262-4.881 18.734-4.881s12.942 1.627 18.734 4.881c205.699 116.19 282.214 235.116 282.214 438.875v147.918c0 14.792-8.954 28.178-22.798 33.947zM1032.294 678.031l-150.474-184.898c-7.222-8.727-18.057-13.83-29.417-13.83h-1.579c-11.964 0.518-23.023 6.582-29.719 16.418l-75.238 110.939c-11.509 17.010-6.847 39.939 10.459 51.254 17.155 11.241 40.553 6.804 52.139-10.28l46.723-68.858 118.272 145.405c13.016 15.901 36.716 18.416 52.89 5.769 16.253-12.647 18.81-35.944 5.945-51.919zM516.673 656.592v75.853h-429.268c-39.421 0-71.545-34.057-71.545-75.853v-151.703h515.908c-9.944 46.345-15.095 96.256-15.095 151.703zM952.070 163.484c109.431 60.871 185.816 124.444 235.904 199.182h3.012v-355.556c0-39.253-32.905-71.111-73.446-71.111h-1028.233c-40.468 0-73.445 31.858-73.445 71.111v355.556h590.72c50.165-74.667 126.546-138.311 235.981-199.324 16.597-9.173 35.547-14.009 54.645-14.009 19.095 0 38.044 4.836 54.864 14.151zM199.474 149.333h146.891c20.27 0 36.722 15.929 36.722 35.556s-16.452 35.556-36.722 35.556h-146.891c-20.271 0-36.723-15.929-36.723-35.556s16.452-35.556 36.723-35.556z" />
<glyph unicode="&#xe914;" glyph-name="subscription" d="M512.228-40.862c-269.917 0-488.728 218.806-488.728 488.727 0 269.915 218.811 488.726 488.728 488.726 269.912 0 488.727-218.811 488.727-488.726 0-269.922-218.815-488.727-488.727-488.727zM341.173 350.12v-97.745h122.183v-97.745h97.745v97.745h48.873c67.477 0 122.182 54.7 122.182 122.182 0 67.477-54.705 122.181-122.182 122.181h-195.491c-13.497 0-24.437 10.938-24.437 24.436 0 13.494 10.941 24.436 24.437 24.436h268.8v97.744h-122.182v97.745h-97.745v-97.745h-48.873c-67.48 0-122.183-54.703-122.183-122.18s54.703-122.181 122.183-122.181h195.491c13.494 0 24.436-10.943 24.436-24.436 0-13.498-10.943-24.436-24.436-24.436h-268.801z" />
<glyph unicode="&#xe915;" glyph-name="tank" horiz-adv-x="970" d="M970.105 609.684v-161.684c0-133.945-217.163-242.526-485.053-242.526-267.887 0-485.053 108.582-485.053 242.526v161.684c0-133.945 217.166-242.526 485.053-242.526 267.889 0 485.053 108.582 485.053 242.526zM0 340.211c0-133.945 217.166-242.526 485.053-242.526 267.889 0 485.053 108.582 485.053 242.526v-161.684c0-133.945-217.163-242.526-485.053-242.526-267.887 0-485.053 108.582-485.053 242.526v161.684zM485.053 474.947c-267.887 0-485.053 108.583-485.053 242.526s217.166 242.526 485.053 242.526c267.889 0 485.053-108.583 485.053-242.526s-217.163-242.526-485.053-242.526z" />
<glyph unicode="&#xe916;" glyph-name="trusted" horiz-adv-x="1331" d="M1272.832 928.971c-20.91 20.687-46.046 31.029-75.407 31.029h-1067.845c-29.365 0-54.496-10.34-75.42-31.029-20.912-20.691-31.363-45.555-31.363-74.609v-802.896c0-29.061 10.451-53.927 31.363-74.615 20.924-20.688 46.055-31.034 75.42-31.034h1067.845c29.361 0 54.494 10.346 75.407 31.034 20.91 20.688 31.375 45.551 31.375 74.615v802.896c0 29.054-10.465 53.917-31.375 74.609zM1218.775 51.476c0-5.731-2.113-10.67-6.339-14.865-4.222-4.164-9.23-6.25-15.008-6.25h-1067.845c-5.781 0-10.788 2.086-15.014 6.267-4.224 4.192-6.34 9.131-6.34 14.862v401.442h1110.545v-401.456zM108.23 706.445v147.905c0 5.721 2.108 10.664 6.34 14.854 4.229 4.17 9.236 6.263 15.014 6.263h1067.845c5.779 0 10.786-2.084 15.008-6.263 4.226-4.191 6.339-9.133 6.339-14.854v-147.905h-1110.545zM193.663 199.4v-84.524h170.854v84.524h-170.854zM706.208 199.4v-84.524h-256.28v84.524h256.28z" />
<glyph unicode="&#xe917;" glyph-name="user-magmt" horiz-adv-x="819" d="M799.094-53.76h-764.584v95.575c0 131.958 106.974 238.93 238.933 238.93h286.722c131.958 0 238.93-106.972 238.93-238.93v-95.575zM416.802 376.32c-158.351 0-286.72 128.369-286.72 286.72s128.369 286.72 286.72 286.72c158.348 0 286.722-128.369 286.722-286.72s-128.374-286.72-286.722-286.72z" />
<glyph unicode="&#xe918;" glyph-name="username" horiz-adv-x="922" d="M294.4 703.999c0 91.9 74.5 166.4 166.4 166.4s166.4-74.5 166.4-166.4-74.501-166.4-166.4-166.4c-91.9 0-166.4 74.5-166.4 166.4zM460.8 947.199c-134.316 0-243.2-108.884-243.2-243.2s108.884-243.2 243.2-243.2c134.318 0 243.2 108.884 243.2 243.2s-108.882 243.2-243.2 243.2zM256 332.8c-64.501 0-126.36-25.626-171.969-71.235s-71.231-107.464-71.231-171.965v-102.4c0-21.207 17.192-38.4 38.4-38.4s38.4 17.193 38.4 38.4v102.4c0 44.129 17.531 86.456 48.737 117.663s73.531 48.737 117.663 48.737h409.6c44.134 0 86.456-17.531 117.663-48.737s48.737-73.533 48.737-117.663v-102.4c0-21.207 17.193-38.4 38.4-38.4s38.4 17.193 38.4 38.4v102.4c0 64.502-25.62 126.356-71.229 171.965s-107.469 71.235-171.971 71.235h-409.6z" />
<glyph unicode="&#xe919;" glyph-name="probes-catalog" d="M73.778 913.147h856.677c29.576 0 53.543-23.972 53.543-53.542v-374.797h-963.762v374.797c0 29.57 23.972 53.542 53.543 53.542zM20.235 377.722h963.762v-374.795c0-29.576-23.968-53.543-53.543-53.543h-856.677c-29.571 0-53.543 23.968-53.543 53.543v374.795zM234.405 217.094v-107.086h160.628v107.086h-160.628zM234.405 752.52v-107.085h160.628v107.085h-160.628z" />
<glyph unicode="&#xe91a;" glyph-name="logout-new" d="M151.094 845.689c-13.358 0-26.168-5.306-35.613-14.752s-14.751-22.256-14.751-35.613v-705.105c0-13.353 5.306-26.168 14.751-35.61 9.445-9.446 22.256-14.756 35.613-14.756h201.459c27.815 0 50.365-22.548 50.365-50.365 0-27.812-22.55-50.365-50.365-50.365h-201.459c-40.073 0-78.504 15.923-106.84 44.257-28.335 28.339-44.254 66.77-44.254 106.839v705.105c0 40.073 15.919 78.503 44.254 106.839s66.767 44.255 106.84 44.255h201.459c27.815 0 50.365-22.549 50.365-50.364s-22.55-50.365-50.365-50.365h-201.459zM669.507 730.206c19.671 19.668 51.558 19.668 71.229 0l251.822-251.823c19.666-19.669 19.666-51.559 0-71.225l-251.822-251.827c-19.671-19.666-51.558-19.666-71.229 0-19.666 19.671-19.666 51.558 0 71.229l165.847 165.847h-482.81c-27.815 0-50.364 22.548-50.364 50.365 0 27.815 22.549 50.364 50.364 50.364h482.81l-165.847 165.843c-19.666 19.668-19.666 51.557 0 71.226z" />
<glyph unicode="&#xe91c;" glyph-name="download" horiz-adv-x="979" d="M123.652 173.443h712.346v-79.151h-712.346v79.151zM519.4 404.102l240.266 240.264 55.964-55.968-335.805-335.804-335.802 335.804 55.967 55.968 240.262-240.264v442.116h79.149v-442.116z" />
</font>
</defs>
</svg>
