<svg version="1.2" xmlns="http://www.w3.org/2000/svg" viewBox="0 0 18 12" width="18" height="12">
	<title>white-left-arrow2-svg</title>
	<style>
		.s0 { fill: #ffffff } 
	</style>
	<path id="Layer" class="s0" d="m8.3 10.7l-8-7.5q-0.1-0.2-0.2-0.3-0.1-0.2-0.1-0.4 0-0.2 0.1-0.4 0.1-0.1 0.2-0.3l0.6-0.5q0.1-0.2 0.3-0.2 0.2-0.1 0.4-0.1 0.2 0 0.3 0.1 0.2 0 0.4 0.2l6.7 6.3 6.7-6.3q0.3-0.3 0.7-0.3 0.4 0 0.7 0.3l0.6 0.5q0.1 0.2 0.2 0.3 0.1 0.2 0.1 0.4 0 0.2-0.1 0.3-0.1 0.2-0.2 0.3l-8 7.6q-0.1 0.1-0.2 0.1 0 0.1-0.1 0.1-0.1 0.1-0.2 0.1-0.1 0-0.2 0-0.4 0-0.7-0.3z"/>
</svg>